<svg xmlns="http://www.w3.org/2000/svg" width="36.475" height="34.001" viewBox="0 0 36.475 34.001"><g transform="translate(-27.001 -1696)"><g transform="translate(-25.104 1669.976)"><path d="M52.355,54.015l7.533-4.531c.329-.173,3.641-1.752,6.469-.9h0l6.789,2.054a.869.869,0,0,1-.044.138,1.322,1.322,0,0,1-1.159.863,35.864,35.864,0,0,1-5.967.129,1.035,1.035,0,0,0-1.1.967m1.479-4.151" fill="none" stroke="#1a1818" stroke-miterlimit="10" stroke-width="0.972"/><path d="M77.374,51.047c.061-.026,5.656-2.719,8.294-3.884a1.957,1.957,0,0,1,1.929,0c.017.008.026.017.043.026L73.534,57.5a4.72,4.72,0,0,1-3.494.846L58.862,56.778a1.066,1.066,0,0,0-.83.224L54.85,59.651M90.1,46.852" fill="none" stroke="#1a1818" stroke-miterlimit="10" stroke-width="0.972"/><path d="M68.068,36.823a3.97,3.97,0,1,1,0,5.61,3.948,3.948,0,0,1,0-5.61Zm0,0" fill="none" stroke="#1a1818" stroke-miterlimit="10" stroke-width="0.972"/><path d="M76.111,27.286a2.645,2.645,0,1,1,0,3.737,2.641,2.641,0,0,1,0-3.737Zm0,0" fill="none" stroke="#1a1818" stroke-miterlimit="10" stroke-width="0.972"/></g><path d="M32.928,1726.978a1.07,1.07,0,0,1,.831-.224l2.566.361-6.579,2.513Zm12.008,1.346-8.611-1.21,15.945-6.091c.06-.027,5.656-2.719,8.293-3.884a1.958,1.958,0,0,1,1.929,0c.017.009.025.017.043.026L48.43,1727.478a4.708,4.708,0,0,1-3.494.846Zm-10.152-8.863c.329-.173,3.641-1.752,6.468-.9l6.789,2.055a.9.9,0,0,1-.043.138,1.321,1.321,0,0,1-1.159.863,35.913,35.913,0,0,1-5.967.13,1.034,1.034,0,0,0-1.1.967l-12.523,1.277Zm8.18-7.052a3.972,3.972,0,1,1,2.811,1.166A3.969,3.969,0,0,1,42.964,1712.409ZM51.007,1701a2.655,2.655,0,1,1,1.877.777A2.646,2.646,0,0,1,51.007,1701Z" fill="#e60028"/></g></svg>