<svg xmlns="http://www.w3.org/2000/svg" width="37.623" height="29.002" viewBox="0 0 37.623 29.002">
  <g id="Vector_Smart_Object7" data-name="Vector Smart Object7" transform="translate(-29.886 -20.881)">
    <g id="Group_107" data-name="Group 107">
      <g id="Group_104" data-name="Group 104">
        <g id="Group_103" data-name="Group 103">
          <path id="Path_161" data-name="Path 161" d="M48.7,47.544c0-1.672,2.438-6.234,2.438-6.234a7.6,7.6,0,0,1,3.495-3.547h0l5.07-1.915a.664.664,0,0,1,.038.1,1,1,0,0,1-.3,1.059A27.338,27.338,0,0,1,55.9,39.861a.785.785,0,0,0-.212,1.094m-1.048-3.192" fill="#e40029" stroke="#1a1818" stroke-miterlimit="10" stroke-width="0.907"/>
          <path id="Path_162" data-name="Path 162" d="M61.457,35.436c.024-.044,3.149-5.577,4.2-7.506a1.492,1.492,0,0,1,1.167-.9c.014,0,.024,0,.038,0l-3.71,12.777a3.588,3.588,0,0,1-1.719,2.134l-7.5,4.246a.81.81,0,0,0-.4.521l-.686,3.077M68.2,25.681" fill="#e40029" stroke="#1a1818" stroke-miterlimit="10" stroke-width="0.907"/>
        </g>
      </g>
      <g id="Group_106" data-name="Group 106">
        <g id="Group_105" data-name="Group 105">
          <path id="Path_163" data-name="Path 163" d="M41.711,40.954a.785.785,0,0,0-.212-1.094,27.332,27.332,0,0,1-3.551-2.851,1,1,0,0,1-.3-1.059.664.664,0,0,1,.038-.1l5.07,1.915h0a7.6,7.6,0,0,1,3.495,3.547s2.438,4.562,2.438,6.234m-5.933-9.781" fill="#e40029" stroke="#1a1818" stroke-miterlimit="10" stroke-width="0.907"/>
          <path id="Path_164" data-name="Path 164" d="M44.544,49.785l-.686-3.077a.81.81,0,0,0-.4-.521l-7.5-4.246a3.588,3.588,0,0,1-1.719-2.134L30.532,27.03c.015,0,.024,0,.038,0a1.492,1.492,0,0,1,1.167.9c1.051,1.929,4.176,7.462,4.2,7.506M29.2,25.681" fill="#e40029" stroke="#1a1818" stroke-miterlimit="10" stroke-width="0.907"/>
        </g>
      </g>
    </g>
    <g id="Group_109" data-name="Group 109">
      <g id="Group_108" data-name="Group 108">
        <path id="Path_165" data-name="Path 165" d="M55.645,25.179a3.94,3.94,0,0,0-3.773-3.845,3.756,3.756,0,0,0-3.213,1.841,3.616,3.616,0,0,0-3.136-1.841,3.94,3.94,0,0,0-3.773,3.845,3.927,3.927,0,0,0,.118,1.461,6.251,6.251,0,0,0,1.931,3.2l4.857,4.385L53.6,29.846a6.265,6.265,0,0,0,1.931-3.205,3.956,3.956,0,0,0,.118-1.461ZM55,26.518" fill="#e40029" stroke="#1a1818" stroke-miterlimit="10" stroke-width="0.907"/>
      </g>
    </g>
  </g>
</svg>
